<svg xmlns="http://www.w3.org/2000/svg" class="w-screen h-screen leading-none markmap mm-cg6fjb-1" style=""><style>.markmap{font:300 16px/20px sans-serif}.markmap-link{fill:none}.markmap-node&gt;circle{cursor:pointer}.markmap-foreign{display:inline-block}.markmap-foreign a{color:#0097e6}.markmap-foreign a:hover{color:#00a8ff}.markmap-foreign code{background-color:#f0f0f0;border-radius:2px;color:#555;font-size:calc(1em - 2px)}.markmap-foreign :not(pre)&gt;code{padding:.2em .4em}.markmap-foreign del{text-decoration:line-through}.markmap-foreign em{font-style:italic}.markmap-foreign strong{font-weight:bolder}.markmap-foreign mark{background:#ffeaa7}.markmap-foreign pre,.markmap-foreign pre[class*=language-]{margin:0;padding:.2em .4em}</style><g transform="translate(-102.41521317829458,299.76762354651163) scale(1.5419089147286822)"><path class="markmap-link" data-depth="1" data-path="1.2" d="M144,10C184,10,184,-86.25,224,-86.25" stroke="rgb(255, 127, 14)" stroke-width="2"></path><path class="markmap-link" data-depth="1" data-path="1.6" d="M144,10C184,10,184,106.25,224,106.25" stroke="rgb(127, 127, 127)" stroke-width="2"></path><path class="markmap-link" data-depth="2" data-path="1.2.3" d="M357,-86.25C397,-86.25,397,-111.25,437,-111.25" stroke="rgb(148, 103, 189)" stroke-width="1.5"></path><path class="markmap-link" data-depth="2" data-path="1.2.4" d="M357,-86.25C397,-86.25,397,-86.25,437,-86.25" stroke="rgb(140, 86, 75)" stroke-width="1.5"></path><path class="markmap-link" data-depth="2" data-path="1.2.5" d="M357,-86.25C397,-86.25,397,-61.25,437,-61.25" stroke="rgb(227, 119, 194)" stroke-width="1.5"></path><path class="markmap-link" data-depth="2" data-path="1.6.7" d="M357,106.25C397,106.25,397,-31.25,437,-31.25" stroke="rgb(188, 189, 34)" stroke-width="1.5"></path><path class="markmap-link" data-depth="2" data-path="1.6.8" d="M357,106.25C397,106.25,397,-6.25,437,-6.25" stroke="rgb(23, 190, 207)" stroke-width="1.5"></path><path class="markmap-link" data-depth="2" data-path="1.6.9" d="M357,106.25C397,106.25,397,18.75,437,18.75" stroke="rgb(31, 119, 180)" stroke-width="1.5"></path><path class="markmap-link" data-depth="2" data-path="1.6.10" d="M357,106.25C397,106.25,397,43.75,437,43.75" stroke="rgb(255, 127, 14)" stroke-width="1.5"></path><path class="markmap-link" data-depth="2" data-path="1.6.11" d="M357,106.25C397,106.25,397,68.75,437,68.75" stroke="rgb(44, 160, 44)" stroke-width="1.5"></path><path class="markmap-link" data-depth="2" data-path="1.6.12" d="M357,106.25C397,106.25,397,93.75,437,93.75" stroke="rgb(214, 39, 40)" stroke-width="1.5"></path><path class="markmap-link" data-depth="2" data-path="1.6.13" d="M357,106.25C397,106.25,397,118.75,437,118.75" stroke="rgb(148, 103, 189)" stroke-width="1.5"></path><path class="markmap-link" data-depth="2" data-path="1.6.14" d="M357,106.25C397,106.25,397,143.75,437,143.75" stroke="rgb(140, 86, 75)" stroke-width="1.5"></path><path class="markmap-link" data-depth="2" data-path="1.6.15" d="M357,106.25C397,106.25,397,168.75,437,168.75" stroke="rgb(227, 119, 194)" stroke-width="1.5"></path><path class="markmap-link" data-depth="2" data-path="1.6.16" d="M357,106.25C397,106.25,397,193.75,437,193.75" stroke="rgb(127, 127, 127)" stroke-width="1.5"></path><path class="markmap-link" data-depth="2" data-path="1.6.17" d="M357,106.25C397,106.25,397,218.75,437,218.75" stroke="rgb(188, 189, 34)" stroke-width="1.5"></path><path class="markmap-link" data-depth="2" data-path="1.6.18" d="M357,106.25C397,106.25,397,243.75,437,243.75" stroke="rgb(23, 190, 207)" stroke-width="1.5"></path><g data-depth="2" data-path="1.6.18" transform="translate(437, 223.75)" class="markmap-node"><line x1="-1" x2="99" y1="20" y2="20" stroke="rgb(23, 190, 207)" stroke-width="1.5"></line><foreignObject class="markmap-foreign" x="8" y="0" width="81" height="20" style="opacity: 1;"><div xmlns="http://www.w3.org/1999/xhtml">火焰图分析</div></foreignObject></g><g data-depth="2" data-path="1.6.17" transform="translate(437, 198.75)" class="markmap-node"><line x1="-1" x2="147" y1="20" y2="20" stroke="rgb(188, 189, 34)" stroke-width="1.5"></line><foreignObject class="markmap-foreign" x="8" y="0" width="129" height="20" style="opacity: 1;"><div xmlns="http://www.w3.org/1999/xhtml">查看方法调用路径</div></foreignObject></g><g data-depth="2" data-path="1.6.16" transform="translate(437, 173.75)" class="markmap-node"><line x1="-1" x2="179" y1="20" y2="20" stroke="rgb(127, 127, 127)" stroke-width="1.5"></line><foreignObject class="markmap-foreign" x="8" y="0" width="161" height="20" style="opacity: 1;"><div xmlns="http://www.w3.org/1999/xhtml">查看方法入参出参信息</div></foreignObject></g><g data-depth="2" data-path="1.6.15" transform="translate(437, 148.75)" class="markmap-node"><line x1="-1" x2="99" y1="20" y2="20" stroke="rgb(227, 119, 194)" stroke-width="1.5"></line><foreignObject class="markmap-foreign" x="8" y="0" width="81" height="20" style="opacity: 1;"><div xmlns="http://www.w3.org/1999/xhtml">查看变量值</div></foreignObject></g><g data-depth="2" data-path="1.6.14" transform="translate(437, 123.75)" class="markmap-node"><line x1="-1" x2="115" y1="20" y2="20" stroke="rgb(140, 86, 75)" stroke-width="1.5"></line><foreignObject class="markmap-foreign" x="8" y="0" width="97" height="20" style="opacity: 1;"><div xmlns="http://www.w3.org/1999/xhtml">查看方法信息</div></foreignObject></g><g data-depth="2" data-path="1.6.13" transform="translate(437, 98.75)" class="markmap-node"><line x1="-1" x2="115" y1="20" y2="20" stroke="rgb(148, 103, 189)" stroke-width="1.5"></line><foreignObject class="markmap-foreign" x="8" y="0" width="97" height="20" style="opacity: 1;"><div xmlns="http://www.w3.org/1999/xhtml">查看字段信息</div></foreignObject></g><g data-depth="2" data-path="1.6.12" transform="translate(437, 73.75)" class="markmap-node"><line x1="-1" x2="179" y1="20" y2="20" stroke="rgb(214, 39, 40)" stroke-width="1.5"></line><foreignObject class="markmap-foreign" x="8" y="0" width="161" height="20" style="opacity: 1;"><div xmlns="http://www.w3.org/1999/xhtml">程序耗时较长问题排查</div></foreignObject></g><g data-depth="2" data-path="1.6.11" transform="translate(437, 48.75)" class="markmap-node"><line x1="-1" x2="83" y1="20" y2="20" stroke="rgb(44, 160, 44)" stroke-width="1.5"></line><foreignObject class="markmap-foreign" x="8" y="0" width="65" height="20" style="opacity: 1;"><div xmlns="http://www.w3.org/1999/xhtml">反编译、</div></foreignObject></g><g data-depth="2" data-path="1.6.10" transform="translate(437, 23.75)" class="markmap-node"><line x1="-1" x2="147" y1="20" y2="20" stroke="rgb(255, 127, 14)" stroke-width="1.5"></line><foreignObject class="markmap-foreign" x="8" y="0" width="129" height="20" style="opacity: 1;"><div xmlns="http://www.w3.org/1999/xhtml">线程死锁问题排查</div></foreignObject></g><g data-depth="2" data-path="1.6.9" transform="translate(437, -1.25)" class="markmap-node"><line x1="-1" x2="83" y1="20" y2="20" stroke="rgb(31, 119, 180)" stroke-width="1.5"></line><foreignObject class="markmap-foreign" x="8" y="0" width="65" height="20" style="opacity: 1;"><div xmlns="http://www.w3.org/1999/xhtml">线程状态</div></foreignObject></g><g data-depth="2" data-path="1.6.8" transform="translate(437, -26.25)" class="markmap-node"><line x1="-1" x2="153" y1="20" y2="20" stroke="rgb(23, 190, 207)" stroke-width="1.5"></line><foreignObject class="markmap-foreign" x="8" y="0" width="135" height="20" style="opacity: 1;"><div xmlns="http://www.w3.org/1999/xhtml">CPU 过高问题排查</div></foreignObject></g><g data-depth="2" data-path="1.6.7" transform="translate(437, -51.25)" class="markmap-node"><line x1="-1" x2="83" y1="20" y2="20" stroke="rgb(188, 189, 34)" stroke-width="1.5"></line><foreignObject class="markmap-foreign" x="8" y="0" width="65" height="20" style="opacity: 1;"><div xmlns="http://www.w3.org/1999/xhtml">全局监控</div></foreignObject></g><g data-depth="2" data-path="1.2.5" transform="translate(437, -81.25)" class="markmap-node"><line x1="-1" x2="161" y1="20" y2="20" stroke="rgb(227, 119, 194)" stroke-width="1.5"></line><foreignObject class="markmap-foreign" x="8" y="0" width="143" height="20" style="opacity: 1;"><div xmlns="http://www.w3.org/1999/xhtml">Arthas web console</div></foreignObject></g><g data-depth="2" data-path="1.2.4" transform="translate(437, -106.25)" class="markmap-node"><line x1="-1" x2="103" y1="20" y2="20" stroke="rgb(140, 86, 75)" stroke-width="1.5"></line><foreignObject class="markmap-foreign" x="8" y="0" width="85" height="20" style="opacity: 1;"><div xmlns="http://www.w3.org/1999/xhtml">Arthas 运行</div></foreignObject></g><g data-depth="2" data-path="1.2.3" transform="translate(437, -131.25)" class="markmap-node"><line x1="-1" x2="103" y1="20" y2="20" stroke="rgb(148, 103, 189)" stroke-width="1.5"></line><foreignObject class="markmap-foreign" x="8" y="0" width="85" height="20" style="opacity: 1;"><div xmlns="http://www.w3.org/1999/xhtml">Arthas 安装</div></foreignObject></g><g data-depth="1" data-path="1.6" transform="translate(224, 86.25)" class="markmap-node"><line x1="-1" x2="135" y1="20" y2="20" stroke="rgb(127, 127, 127)" stroke-width="2"></line><circle stroke-width="1.5" cx="133" cy="20" r="6" stroke="rgb(127, 127, 127)" fill="rgb(255, 255, 255)"></circle><foreignObject class="markmap-foreign" x="8" y="0" width="117" height="20" style="opacity: 1;"><div xmlns="http://www.w3.org/1999/xhtml">Arthas 常用操作</div></foreignObject></g><g data-depth="1" data-path="1.2" transform="translate(224, -106.25)" class="markmap-node"><line x1="-1" x2="135" y1="20" y2="20" stroke="rgb(255, 127, 14)" stroke-width="2"></line><circle stroke-width="1.5" cx="133" cy="20" r="6" stroke="rgb(255, 127, 14)" fill="rgb(255, 255, 255)"></circle><foreignObject class="markmap-foreign" x="8" y="0" width="117" height="20" style="opacity: 1;"><div xmlns="http://www.w3.org/1999/xhtml">Arthas 如何使用</div></foreignObject></g><g data-depth="0" data-path="1" transform="translate(80,-10)" class="markmap-node"><line x1="-1" x2="66" y1="20" y2="20" stroke="rgb(31, 119, 180)" stroke-width="4"></line><circle stroke-width="1.5" cx="64" cy="20" r="6" stroke="rgb(31, 119, 180)" fill="rgb(255, 255, 255)"></circle><foreignObject class="markmap-foreign" x="8" y="0" width="48" height="20" style="opacity: 1;"><div xmlns="http://www.w3.org/1999/xhtml">Arthas</div></foreignObject></g></g></svg>